<svg width="1920" height="3759" viewBox="0 0 1920 3759" fill="none" xmlns="http://www.w3.org/2000/svg">
<g filter="url(#filter0_f_10_63)">
<path d="M-543.49 4114V3439H539.113L2439 3733.5C2222.37 3874 1657.09 4121.4 1128.98 3987C600.864 3852.6 -206.049 4015.67 -543.49 4114Z" fill="#E5FEE1"/>
</g>
<g filter="url(#filter1_f_10_63)">
<path d="M-491.374 3297V2748.5L1650.93 2682L1610.66 3203L-491.374 3297Z" fill="#DFFFFF"/>
</g>
<g filter="url(#filter2_f_10_63)">
<path d="M527.269 2838.5C181.72 2860.1 -302.122 2815.5 -500.85 2790.5V2524L1973.9 2507L1989.69 2821.5C1954.68 2814.5 1832.71 2794.2 1624.88 2769C1365.08 2737.5 959.205 2811.5 527.269 2838.5Z" fill="url(#paint0_radial_10_63)"/>
</g>
<g filter="url(#filter3_f_10_63)">
<path d="M423.825 2718C337.912 2738.4 -204.733 2807.83 -465.315 2840V2553.5H809.172C715.204 2617 531.217 2692.5 423.825 2718Z" fill="url(#paint1_radial_10_63)"/>
</g>
<g filter="url(#filter4_f_10_63)">
<path d="M370.129 3162C119.338 3171.2 -261.324 3225.5 -420.306 3251.5V3474H1917.83V2555C1839.66 2579 1261.64 2926.5 1151.88 2977.5C1042.12 3028.5 683.618 3150.5 370.129 3162Z" fill="url(#paint2_radial_10_63)"/>
</g>
<g filter="url(#filter5_f_10_63)">
<path d="M303.009 3262.5C-266.799 3184.1 -478.213 3235.5 -512.694 3271V3483.5C-512.694 3483.5 171.139 3451.5 784.693 3607C1398.25 3762.5 2074.97 3810.5 2074.97 3810.5V3150.5C1728.32 3293.5 1015.27 3360.5 303.009 3262.5Z" fill="url(#paint3_linear_10_63)"/>
</g>
<g filter="url(#filter6_f_10_63)">
<path d="M539.673 2192.46C388.393 2228.41 -567.118 2350.8 -1025.96 2407.5V1902.5H1218.21C1052.75 2014.43 728.773 2147.51 539.673 2192.46Z" fill="url(#paint4_radial_10_63)"/>
</g>
<g filter="url(#filter7_f_10_63)">
<path d="M-490.584 1803.5V1255L2238.43 1188.5L2187.13 1709.5L-490.584 1803.5Z" fill="#DFFFFF"/>
</g>
<g filter="url(#filter8_f_10_63)">
<path d="M-543.49 719V44H539.113L2439 338.5C2222.37 479 1657.09 726.4 1128.98 592C600.864 457.6 -206.049 620.667 -543.49 719Z" fill="#E5FEE1"/>
</g>
<g filter="url(#filter9_f_10_63)">
<path d="M-543.49 1470.5V795.5H539.113L2439 1090C2222.37 1230.5 1657.09 1477.9 1128.98 1343.5C600.864 1209.1 -206.049 1372.17 -543.49 1470.5Z" fill="#E5FEE1"/>
</g>
<g filter="url(#filter10_f_10_63)">
<path d="M457.78 496C11.7881 397.2 -388.194 434.5 -532.435 465.5L-949.368 1188.5C-586.658 1242.17 262.106 1309.1 755.476 1147.5C1248.85 985.9 2029.17 997.833 2357.67 1024L2416.89 849C2319.5 800 2076.08 678.7 1881.51 585.5C1638.3 469 1015.27 619.5 457.78 496Z" fill="#FBF5E2"/>
</g>
<g filter="url(#filter11_f_10_63)">
<path d="M130.637 2181.46C-20.6432 2217.41 -976.154 2339.8 -1435 2396.5V1891.5H809.172C643.709 2003.43 319.737 2136.51 130.637 2181.46Z" fill="url(#paint5_radial_10_63)"/>
</g>
<g filter="url(#filter12_f_10_63)">
<path d="M370.129 -233C119.338 -223.8 -261.324 -169.5 -420.306 -143.5V79H1917.83V-840C1839.66 -816 1261.64 -468.5 1151.88 -417.5C1042.12 -366.5 683.618 -244.5 370.129 -233Z" fill="url(#paint6_radial_10_63)"/>
</g>
<g filter="url(#filter13_f_10_63)">
<path d="M361.5 2145C110.709 2154.2 -261.324 2284 -420.306 2310V2532.5H1917.83V1613.5C1839.66 1637.5 1241.26 1914.5 1131.5 1965.5C1021.74 2016.5 674.989 2133.5 361.5 2145Z" fill="url(#paint7_radial_10_63)"/>
</g>
<g filter="url(#filter14_f_10_63)">
<path d="M361.5 2727.5C110.709 2736.7 -261.324 2866.5 -420.306 2892.5V3115H1917.83V2196C1839.66 2220 1241.26 2497 1131.5 2548C1021.74 2599 674.989 2716 361.5 2727.5Z" fill="url(#paint8_radial_10_63)"/>
</g>
<g filter="url(#filter15_f_10_63)">
<path d="M303.009 -132.5C-266.799 -210.9 -478.213 -159.5 -512.694 -124V88.5C-512.694 88.5 171.139 56.5 784.693 212C1398.25 367.5 2074.97 415.5 2074.97 415.5V-244.5C1728.32 -101.5 1015.27 -34.5 303.009 -132.5Z" fill="url(#paint9_linear_10_63)"/>
</g>
<g filter="url(#filter16_f_10_63)">
<path d="M303.009 1704.5C-266.799 1626.1 -478.213 1677.5 -512.694 1713V1925.5C-512.694 1925.5 171.139 1893.5 784.693 2049C1398.25 2204.5 2074.97 2252.5 2074.97 2252.5V1592.5C1728.32 1735.5 1015.27 1802.5 303.009 1704.5Z" fill="url(#paint10_linear_10_63)"/>
</g>
<g filter="url(#filter17_f_10_63)">
<path d="M1988.82 2173.5L2054.18 2847.23L973.609 2889.26L-951.219 2669.07C-748.604 2520.42 -208.341 2251.54 331.793 2365.19C871.928 2478.83 1661.53 2284.75 1988.82 2173.5Z" fill="#E5FEE1"/>
</g>
<g filter="url(#filter18_f_10_63)">
<path d="M303.009 2504.5C-266.799 2426.1 -478.213 2477.5 -512.694 2513V2725.5C-512.694 2725.5 171.139 2693.5 784.693 2849C1398.25 3004.5 2074.97 3052.5 2074.97 3052.5V2392.5C1728.32 2535.5 1015.27 2602.5 303.009 2504.5Z" fill="url(#paint11_linear_10_63)"/>
</g>
<defs>
<filter id="filter0_f_10_63" x="-575.49" y="3407" width="3046.49" height="739" filterUnits="userSpaceOnUse" color-interpolation-filters="sRGB">
<feFlood flood-opacity="0" result="BackgroundImageFix"/>
<feBlend mode="normal" in="SourceGraphic" in2="BackgroundImageFix" result="shape"/>
<feGaussianBlur stdDeviation="16" result="effect1_foregroundBlur_10_63"/>
</filter>
<filter id="filter1_f_10_63" x="-523.374" y="2650" width="2206.31" height="679" filterUnits="userSpaceOnUse" color-interpolation-filters="sRGB">
<feFlood flood-opacity="0" result="BackgroundImageFix"/>
<feBlend mode="normal" in="SourceGraphic" in2="BackgroundImageFix" result="shape"/>
<feGaussianBlur stdDeviation="16" result="effect1_foregroundBlur_10_63"/>
</filter>
<filter id="filter2_f_10_63" x="-532.85" y="2475" width="2554.54" height="401.234" filterUnits="userSpaceOnUse" color-interpolation-filters="sRGB">
<feFlood flood-opacity="0" result="BackgroundImageFix"/>
<feBlend mode="normal" in="SourceGraphic" in2="BackgroundImageFix" result="shape"/>
<feGaussianBlur stdDeviation="16" result="effect1_foregroundBlur_10_63"/>
</filter>
<filter id="filter3_f_10_63" x="-497.315" y="2521.5" width="1338.49" height="350.5" filterUnits="userSpaceOnUse" color-interpolation-filters="sRGB">
<feFlood flood-opacity="0" result="BackgroundImageFix"/>
<feBlend mode="normal" in="SourceGraphic" in2="BackgroundImageFix" result="shape"/>
<feGaussianBlur stdDeviation="16" result="effect1_foregroundBlur_10_63"/>
</filter>
<filter id="filter4_f_10_63" x="-452.306" y="2523" width="2402.14" height="983" filterUnits="userSpaceOnUse" color-interpolation-filters="sRGB">
<feFlood flood-opacity="0" result="BackgroundImageFix"/>
<feBlend mode="normal" in="SourceGraphic" in2="BackgroundImageFix" result="shape"/>
<feGaussianBlur stdDeviation="16" result="effect1_foregroundBlur_10_63"/>
</filter>
<filter id="filter5_f_10_63" x="-544.694" y="3118.5" width="2651.67" height="724" filterUnits="userSpaceOnUse" color-interpolation-filters="sRGB">
<feFlood flood-opacity="0" result="BackgroundImageFix"/>
<feBlend mode="normal" in="SourceGraphic" in2="BackgroundImageFix" result="shape"/>
<feGaussianBlur stdDeviation="16" result="effect1_foregroundBlur_10_63"/>
</filter>
<filter id="filter6_f_10_63" x="-1057.96" y="1870.5" width="2308.17" height="569" filterUnits="userSpaceOnUse" color-interpolation-filters="sRGB">
<feFlood flood-opacity="0" result="BackgroundImageFix"/>
<feBlend mode="normal" in="SourceGraphic" in2="BackgroundImageFix" result="shape"/>
<feGaussianBlur stdDeviation="16" result="effect1_foregroundBlur_10_63"/>
</filter>
<filter id="filter7_f_10_63" x="-522.584" y="1156.5" width="2793.01" height="679" filterUnits="userSpaceOnUse" color-interpolation-filters="sRGB">
<feFlood flood-opacity="0" result="BackgroundImageFix"/>
<feBlend mode="normal" in="SourceGraphic" in2="BackgroundImageFix" result="shape"/>
<feGaussianBlur stdDeviation="16" result="effect1_foregroundBlur_10_63"/>
</filter>
<filter id="filter8_f_10_63" x="-575.49" y="12" width="3046.49" height="739" filterUnits="userSpaceOnUse" color-interpolation-filters="sRGB">
<feFlood flood-opacity="0" result="BackgroundImageFix"/>
<feBlend mode="normal" in="SourceGraphic" in2="BackgroundImageFix" result="shape"/>
<feGaussianBlur stdDeviation="16" result="effect1_foregroundBlur_10_63"/>
</filter>
<filter id="filter9_f_10_63" x="-575.49" y="763.5" width="3046.49" height="739" filterUnits="userSpaceOnUse" color-interpolation-filters="sRGB">
<feFlood flood-opacity="0" result="BackgroundImageFix"/>
<feBlend mode="normal" in="SourceGraphic" in2="BackgroundImageFix" result="shape"/>
<feGaussianBlur stdDeviation="16" result="effect1_foregroundBlur_10_63"/>
</filter>
<filter id="filter10_f_10_63" x="-981.368" y="400.042" width="3430.26" height="880.97" filterUnits="userSpaceOnUse" color-interpolation-filters="sRGB">
<feFlood flood-opacity="0" result="BackgroundImageFix"/>
<feBlend mode="normal" in="SourceGraphic" in2="BackgroundImageFix" result="shape"/>
<feGaussianBlur stdDeviation="16" result="effect1_foregroundBlur_10_63"/>
</filter>
<filter id="filter11_f_10_63" x="-1467" y="1859.5" width="2308.17" height="569" filterUnits="userSpaceOnUse" color-interpolation-filters="sRGB">
<feFlood flood-opacity="0" result="BackgroundImageFix"/>
<feBlend mode="normal" in="SourceGraphic" in2="BackgroundImageFix" result="shape"/>
<feGaussianBlur stdDeviation="16" result="effect1_foregroundBlur_10_63"/>
</filter>
<filter id="filter12_f_10_63" x="-452.306" y="-872" width="2402.14" height="983" filterUnits="userSpaceOnUse" color-interpolation-filters="sRGB">
<feFlood flood-opacity="0" result="BackgroundImageFix"/>
<feBlend mode="normal" in="SourceGraphic" in2="BackgroundImageFix" result="shape"/>
<feGaussianBlur stdDeviation="16" result="effect1_foregroundBlur_10_63"/>
</filter>
<filter id="filter13_f_10_63" x="-452.306" y="1581.5" width="2402.14" height="983" filterUnits="userSpaceOnUse" color-interpolation-filters="sRGB">
<feFlood flood-opacity="0" result="BackgroundImageFix"/>
<feBlend mode="normal" in="SourceGraphic" in2="BackgroundImageFix" result="shape"/>
<feGaussianBlur stdDeviation="16" result="effect1_foregroundBlur_10_63"/>
</filter>
<filter id="filter14_f_10_63" x="-452.306" y="2164" width="2402.14" height="983" filterUnits="userSpaceOnUse" color-interpolation-filters="sRGB">
<feFlood flood-opacity="0" result="BackgroundImageFix"/>
<feBlend mode="normal" in="SourceGraphic" in2="BackgroundImageFix" result="shape"/>
<feGaussianBlur stdDeviation="16" result="effect1_foregroundBlur_10_63"/>
</filter>
<filter id="filter15_f_10_63" x="-544.694" y="-276.5" width="2651.67" height="724" filterUnits="userSpaceOnUse" color-interpolation-filters="sRGB">
<feFlood flood-opacity="0" result="BackgroundImageFix"/>
<feBlend mode="normal" in="SourceGraphic" in2="BackgroundImageFix" result="shape"/>
<feGaussianBlur stdDeviation="16" result="effect1_foregroundBlur_10_63"/>
</filter>
<filter id="filter16_f_10_63" x="-544.694" y="1560.5" width="2651.67" height="724" filterUnits="userSpaceOnUse" color-interpolation-filters="sRGB">
<feFlood flood-opacity="0" result="BackgroundImageFix"/>
<feBlend mode="normal" in="SourceGraphic" in2="BackgroundImageFix" result="shape"/>
<feGaussianBlur stdDeviation="16" result="effect1_foregroundBlur_10_63"/>
</filter>
<filter id="filter17_f_10_63" x="-983.219" y="2141.5" width="3069.4" height="779.758" filterUnits="userSpaceOnUse" color-interpolation-filters="sRGB">
<feFlood flood-opacity="0" result="BackgroundImageFix"/>
<feBlend mode="normal" in="SourceGraphic" in2="BackgroundImageFix" result="shape"/>
<feGaussianBlur stdDeviation="16" result="effect1_foregroundBlur_10_63"/>
</filter>
<filter id="filter18_f_10_63" x="-544.694" y="2360.5" width="2651.67" height="724" filterUnits="userSpaceOnUse" color-interpolation-filters="sRGB">
<feFlood flood-opacity="0" result="BackgroundImageFix"/>
<feBlend mode="normal" in="SourceGraphic" in2="BackgroundImageFix" result="shape"/>
<feGaussianBlur stdDeviation="16" result="effect1_foregroundBlur_10_63"/>
</filter>
<radialGradient id="paint0_radial_10_63" cx="0" cy="0" r="1" gradientUnits="userSpaceOnUse" gradientTransform="translate(-302.649 2753.5) rotate(-3.49187) scale(2265.75 6746.07)">
<stop stop-color="#FFF2F0"/>
<stop offset="1" stop-color="#FEF1EE"/>
</radialGradient>
<radialGradient id="paint1_radial_10_63" cx="0" cy="0" r="1" gradientUnits="userSpaceOnUse" gradientTransform="translate(-368.979 2703.5) rotate(-8.9013) scale(979.108 1808.76)">
<stop stop-color="#FBF5E2"/>
<stop offset="1" stop-color="#FBF5E2"/>
</radialGradient>
<radialGradient id="paint2_radial_10_63" cx="0" cy="0" r="1" gradientUnits="userSpaceOnUse" gradientTransform="translate(-361.082 3396) rotate(-11.4941) scale(2511.7 2714.12)">
<stop stop-color="#EEF6FF"/>
<stop offset="1" stop-color="#EEF6FF"/>
</radialGradient>
<linearGradient id="paint3_linear_10_63" x1="-400.565" y1="3341" x2="1991.26" y2="3334.76" gradientUnits="userSpaceOnUse">
<stop stop-color="#FFF0EA"/>
<stop offset="1" stop-color="#FFF3EC"/>
</linearGradient>
<radialGradient id="paint4_radial_10_63" cx="0" cy="0" r="1" gradientUnits="userSpaceOnUse" gradientTransform="translate(-856.33 2166.9) rotate(-8.9103) scale(1724.1 3188.15)">
<stop stop-color="#FBF5E2"/>
<stop offset="1" stop-color="#FBF5E2"/>
</radialGradient>
<radialGradient id="paint5_radial_10_63" cx="0" cy="0" r="1" gradientUnits="userSpaceOnUse" gradientTransform="translate(-1265.37 2155.9) rotate(-8.9103) scale(1724.1 3188.15)">
<stop stop-color="#FBF5E2"/>
<stop offset="1" stop-color="#FBF5E2"/>
</radialGradient>
<radialGradient id="paint6_radial_10_63" cx="0" cy="0" r="1" gradientUnits="userSpaceOnUse" gradientTransform="translate(-361.082 0.999983) rotate(-11.4941) scale(2511.7 2714.12)">
<stop stop-color="#EEF6FF"/>
<stop offset="1" stop-color="#EEF6FF"/>
</radialGradient>
<radialGradient id="paint7_radial_10_63" cx="0" cy="0" r="1" gradientUnits="userSpaceOnUse" gradientTransform="translate(-361.082 2454.5) rotate(-11.4941) scale(2511.7 2714.12)">
<stop stop-color="#EEF6FF"/>
<stop offset="1" stop-color="#EEF6FF"/>
</radialGradient>
<radialGradient id="paint8_radial_10_63" cx="0" cy="0" r="1" gradientUnits="userSpaceOnUse" gradientTransform="translate(-361.082 3037) rotate(-11.4941) scale(2511.7 2714.12)">
<stop stop-color="#EEF6FF"/>
<stop offset="1" stop-color="#EEF6FF"/>
</radialGradient>
<linearGradient id="paint9_linear_10_63" x1="-400.565" y1="-54.0001" x2="1991.26" y2="-60.2354" gradientUnits="userSpaceOnUse">
<stop stop-color="#FFF0EA"/>
<stop offset="1" stop-color="#FFF3EC"/>
</linearGradient>
<linearGradient id="paint10_linear_10_63" x1="-400.565" y1="1783" x2="1991.26" y2="1776.76" gradientUnits="userSpaceOnUse">
<stop stop-color="#FFF0EA"/>
<stop offset="1" stop-color="#FFF3EC"/>
</linearGradient>
<linearGradient id="paint11_linear_10_63" x1="-400.565" y1="2583" x2="1991.26" y2="2576.76" gradientUnits="userSpaceOnUse">
<stop stop-color="#FFF0EA"/>
<stop offset="1" stop-color="#FFF3EC"/>
</linearGradient>
</defs>
</svg>
